<svg width="86" height="86" viewBox="0 0 86 86" fill="none" xmlns="http://www.w3.org/2000/svg">
<mask id="mask0_202_19" style="mask-type:alpha" maskUnits="userSpaceOnUse" x="0" y="0" width="86" height="86">
<rect width="86" height="86" fill="white" fill-opacity="0.43"/>
</mask>
<g mask="url(#mask0_202_19)">
</g>
<path d="M69 32.6195V46.25H75.5V32.6195C75.5 31.4219 75.2641 30.2361 74.8058 29.1296C74.3475 28.0232 73.6758 27.0179 72.829 26.1711C71.9821 25.3242 70.9768 24.6525 69.8704 24.1942C68.764 23.7359 67.5781 23.5 66.3805 23.5H60.056C59.7112 23.5054 59.369 23.4402 59.0504 23.3082C58.7318 23.1763 58.4436 22.9806 58.2035 22.733L51.892 16.4215C51.0469 15.5733 50.0416 14.9016 48.9345 14.4455C47.8286 13.9845 46.6421 13.7481 45.444 13.75H19.6195C17.2009 13.75 14.8813 14.7108 13.171 16.4211C11.4608 18.1313 10.5 20.4509 10.5 22.8695V59.8773C10.4996 61.0751 10.7351 62.2613 11.1932 63.3681C11.6514 64.4749 12.323 65.4807 13.1699 66.3278C14.0168 67.175 15.0222 67.847 16.1289 68.3055C17.2355 68.764 18.4216 69 19.6195 69H23.5V62.5H19.6195C18.9248 62.5 18.2585 62.224 17.7672 61.7328C17.276 61.2415 17 60.5752 17 59.8805V22.8695C17 21.4233 18.1733 20.25 19.6195 20.25H45.444C46.1655 20.25 46.783 20.5068 47.2965 21.017L53.608 27.3285C54.4627 28.1833 55.4475 28.843 56.5655 29.3045C57.6714 29.7655 58.8579 30.0019 60.056 30H66.3772C67.8267 30 69 31.1733 69 32.6195Z" fill="white"/>
<path d="M59.276 30H17V23.5H59.276V30ZM36.5 62.5H39.75V69H36.5C33.9141 69 31.4342 67.9728 29.6057 66.1443C27.7772 64.3158 26.75 61.8359 26.75 59.25C26.75 56.6641 27.7772 54.1842 29.6057 52.3557C31.4342 50.5272 33.9141 49.5 36.5 49.5H47.875C52.022 49.5 55.2265 50.631 57.4852 52.8897C59.744 55.1485 60.875 58.3498 60.875 62.5H54.375C54.375 60.147 53.881 58.4765 52.8897 57.4853C51.8985 56.494 50.228 56 47.875 56H36.5C35.6381 56.0001 34.8116 56.3426 34.2022 56.9521C33.5928 57.5616 33.2505 58.3881 33.2505 59.25C33.2505 60.1119 33.5928 60.9384 34.2022 61.5479C34.8116 62.1574 35.6381 62.4999 36.5 62.5Z" fill="white"/>
<path d="M65.75 56H62.5V49.5H65.75C68.3359 49.5 70.8158 50.5272 72.6443 52.3557C74.4728 54.1842 75.5 56.6641 75.5 59.25C75.5 61.8359 74.4728 64.3158 72.6443 66.1443C70.8158 67.9728 68.3359 69 65.75 69H54.375C50.228 69 47.0235 67.869 44.7648 65.6102C42.506 63.3515 41.375 60.1503 41.375 56H47.875C47.875 58.353 48.369 60.0235 49.3603 61.0148C50.3515 62.006 52.0252 62.5 54.375 62.5H65.75C66.1768 62.5001 66.5995 62.4161 66.9939 62.2528C67.3882 62.0895 67.7466 61.8501 68.0484 61.5483C68.3503 61.2465 68.5897 60.8882 68.7531 60.4938C68.9164 60.0995 69.0005 59.6768 69.0005 59.25C69.0005 58.8232 68.9164 58.4005 68.7531 58.0062C68.5897 57.6118 68.3503 57.2535 68.0484 56.9517C67.7466 56.6499 67.3882 56.4105 66.9939 56.2473C66.5995 56.084 66.1768 55.9999 65.75 56Z" fill="white"/>
<path d="M21.27 35.055L21.54 34.65H23.445L25.8 43.05H26.04L28.41 34.65H30.3L30.57 35.055L27.63 45H24.21L21.27 35.055ZM32.0738 45V34.65H37.1138C38.7938 34.65 39.6338 35.49 39.6338 37.17V38.88C39.6338 40.13 39.1688 40.91 38.2388 41.22L39.9338 44.55L39.6788 45H37.8188L35.9888 41.4H34.2338V45H32.0738ZM34.2338 39.45H37.0238C37.3238 39.45 37.4738 39.3 37.4738 39V37.05C37.4738 36.75 37.3238 36.6 37.0238 36.6H34.2338V39.45ZM41.6503 42.48V37.17C41.6503 35.49 42.4903 34.65 44.1703 34.65H48.1753L49.1803 35.43V36.6H44.2603C43.9603 36.6 43.8103 36.75 43.8103 37.05V42.6C43.8103 42.9 43.9603 43.05 44.2603 43.05H49.1803V44.22L48.1753 45H44.1703C42.4903 45 41.6503 44.16 41.6503 42.48Z" fill="white"/>
</svg>
